<svg xmlns="http://www.w3.org/2000/svg" viewBox="0 0 108 99"><style>.st0{fill:url(#SVGID_1_);} .st1{fill:url(#SVGID_2_);} .st2{fill:#241B69;} .st3{fill:#2932D2;} .st4{fill:url(#SVGID_3_);} .st5{fill:url(#SVGID_4_);} .st6{fill:#220D41;} .st7{fill:url(#SVGID_5_);}</style><linearGradient id="SVGID_1_" gradientUnits="userSpaceOnUse" x1="36.426" y1="66.082" x2="15.116" y2="46.894"><stop offset=".002" stop-color="#DD1A40"/><stop offset=".965" stop-color="#FD5557"/></linearGradient><path class="st0" d="M7 55.9c.5-.5 1.2-.8 2-.8h34.5c.8 0 1.5.3 2 .8.3.3-19.3 19.3-19.3 19.3S6.7 56.2 7 55.9z"/><linearGradient id="SVGID_2_" gradientUnits="userSpaceOnUse" x1="-36.096" y1="-539.472" x2="2.432" y2="-539.472" gradientTransform="rotate(90 -297.618 -205.576)"><stop offset=".002" stop-color="#E73F4F"/><stop offset=".785" stop-color="#FC5457"/><stop offset=".965" stop-color="#FD5557"/></linearGradient><path class="st1" d="M45.5 55.9c.5.5.8 1.2.8 2v34.5c0 .8-.3 1.5-.8 2-.3.3-19.3-19.3-19.3-19.3s19-19.4 19.3-19.2z"/><path class="st2" d="M45.5 94.5c-.5.5-1.2.8-2 .8H9c-.8 0-1.5-.3-2-.8-.3-.3 19.3-19.3 19.3-19.3s19.4 19 19.2 19.3z"/><path class="st3" d="M7 94.5c-.5-.5-.8-1.2-.8-2V57.9c0-.8.3-1.5.8-2 .3-.3 19.3 19.3 19.3 19.3S7.2 94.7 7 94.5z"/><linearGradient id="SVGID_3_" gradientUnits="userSpaceOnUse" x1="85.481" y1="45.285" x2="93.881" y2="5.763"><stop offset=".002" stop-color="#E7244F"/><stop offset=".621" stop-color="#FD5557"/><stop offset=".852" stop-color="#FD5557"/></linearGradient><path class="st4" d="M70.3 39.6c3.8 3.1 8.6 5 13.9 5 12.1 0 22-9.8 22-22 0-6.1-2.5-11.6-6.4-15.5L70.3 39.6z"/><path class="st2" d="M70.3 39.6c-4.9-4-8.1-10.2-8.1-17 0-12.1 9.8-22 22-22C90.3.6 95.8 3 99.8 7L70.3 39.6z"/><g><path class="st3" d="M55.3 36.2l-17.7-31c-.9-1.6-3.2-1.6-4.1 0l-5.2 9.1L42.9 40h10.3c1.9 0 3.1-2.1 2.1-3.8z"/><linearGradient id="SVGID_4_" gradientUnits="userSpaceOnUse" x1="12.768" y1="41.138" x2="17.393" y2="3.466"><stop offset=".002" stop-color="#E7244F"/><stop offset=".746" stop-color="#FD5557"/></linearGradient><path class="st5" d="M23.1 5.2c-.9-1.6-3.2-1.6-4.1 0l-17.7 31c-.9 1.7.2 3.8 2.1 3.8h10.3l14.6-25.7-5.2-9.1z"/><path class="st6" d="M13.7 40H43L28.3 14.3z"/></g><path class="st2" d="M70.4 39.7c-4.9-4-8.1-10.2-8.1-17 0-12.1 9.8-22 22-22 6.1 0 11.6 2.5 15.5 6.4L70.4 39.7z"/><linearGradient id="SVGID_5_" gradientUnits="userSpaceOnUse" x1="1195.376" y1="871.777" x2="1242.133" y2="871.777" gradientTransform="rotate(180 651.432 473.706)"><stop offset=".002" stop-color="#E7244F"/><stop offset=".785" stop-color="#FC5457"/><stop offset=".965" stop-color="#FD5557"/></linearGradient><path class="st7" d="M84.1 96.2l23-36.8c1.1-1.9-.2-4.2-2.4-4.2H63.5c-2.2 0-3.5 2.4-2.4 4.2l23 36.8z"/><path class="st3" d="M73.2 78.7l-9 15.8c-.5.8.1 1.7 1 1.7h18.9L73.2 78.7z"/></svg>
